<svg xmlns="http://www.w3.org/2000/svg" version="1.1" xmlns:xlink="http://www.w3.org/1999/xlink" xmlns:svgjs="http://svgjs.dev/svgjs" width="1000" height="1000"><g clip-path="url(#SvgjsClipPath1063)"><rect width="1000" height="1000" fill="#ffffff"></rect><g transform="matrix(3.1578947368421053,0,0,3.1578947368421053,200,250.52631578947367)"><svg xmlns="http://www.w3.org/2000/svg" version="1.1" xmlns:xlink="http://www.w3.org/1999/xlink" xmlns:svgjs="http://svgjs.dev/svgjs" width="190" height="158"><svg version="1.1" id="Layer_1" xmlns="http://www.w3.org/2000/svg" xmlns:xlink="http://www.w3.org/1999/xlink" x="0px" y="0px" viewBox="0 0 190 158" style="enable-background:new 0 0 190 158;" xml:space="preserve">
<style type="text/css">
	.st0{fill:#262626;}
</style>
<g>
	<path class="st0" d="M23.3,79c0-14.4,0-28.8,0-43.2c0-3,1.3-4.9,4-6.2c21.6-9.5,43.1-19.1,64.7-28.7c2-0.9,3.8-0.8,5.7,0
		c21.5,9.6,43.1,19.2,64.7,28.7c2.8,1.2,4,3.2,4,6.2c0,28.8,0,57.5,0,86.3c0,3.1-1.3,5-4.1,6.3c-21.5,9.5-43,19.1-64.5,28.7
		c-2,0.9-3.8,0.9-5.9,0c-21.5-9.6-43-19.2-64.5-28.7c-2.8-1.2-4.1-3.2-4.1-6.3C23.3,107.7,23.3,93.4,23.3,79z M34.3,43.5
		c0,0.4-0.1,0.6-0.1,0.8c0,24.7,0,49.3,0,74c0,1,0.5,1.4,1.3,1.7c17.4,7.7,34.8,15.4,52.1,23.2c0.5,0.2,1,0.4,1.6,0.6
		c0-0.5,0-0.8,0-1.1c0-24.5,0-49,0-73.5c0-1.1-0.4-1.5-1.3-1.9c-12.6-5.6-25.2-11.2-37.8-16.8C45,48.2,39.7,45.9,34.3,43.5z
		 M100.3,143.9c0.7-0.3,1.2-0.5,1.8-0.7c17.3-7.7,34.6-15.4,51.9-23c1.1-0.5,1.4-1.1,1.4-2.3c0-24.2,0-48.4,0-72.6
		c0-0.5,0-1.1,0-1.7c-0.7,0.3-1.2,0.5-1.8,0.7c-17.3,7.7-34.6,15.4-51.9,23c-1.1,0.5-1.4,1.1-1.4,2.3c0,24.2,0,48.4,0,72.6
		C100.3,142.6,100.3,143.1,100.3,143.9z M42.4,35c0.5,0.3,0.7,0.4,0.9,0.5C60.1,43,76.9,50.4,93.7,57.8c0.7,0.3,1.7,0.2,2.4-0.1
		c16.5-7.3,32.9-14.6,49.3-21.9c0.5-0.2,1-0.5,1.6-0.8c-0.5-0.3-0.8-0.5-1.2-0.6c-16.7-7.4-33.3-14.9-50-22.2
		c-0.7-0.3-1.7-0.2-2.4,0.1C77,19.6,60.6,26.9,44.1,34.2C43.6,34.4,43.2,34.7,42.4,35z"></path>
</g>
<path class="st0" d="M182.2,135.2l-54.3-24.7c-2.8-1.3-4-4.5-2.7-7.3v0c1.3-2.8,4.5-4,7.3-2.7l54.3,24.7c2.8,1.3,4,4.5,2.7,7.3v0
	C188.2,135.3,185,136.5,182.2,135.2z"></path>
</svg></svg></g></g><defs><clipPath id="SvgjsClipPath1063"><rect width="1000" height="1000" x="0" y="0" rx="250" ry="250"></rect></clipPath></defs></svg>